<svg height="464pt" viewBox="0 0 464 464" width="464pt" xmlns="http://www.w3.org/2000/svg"><path d="m0 232h464v232h-464zm0 0" fill="#8b3123"/><path d="m432 88c0-13.257812-8-24-32-24v56h-112v-32h-8c0-13.253906-10.746094-24-24-24s-24 10.746094-24 24c0-13.253906-10.746094-24-24-24s-24 10.746094-24 24c0-13.253906-10.746094-24-24-24s-24 10.746094-24 24c0-13.253906-10.746094-24-24-24s-24 10.746094-24 24c0-13.253906-10.746094-24-24-24-13.257812 0-19.34375 11.59375-24 24l-24 64h432zm0 0" fill="#d3843d"/><path d="m88 264c30.929688 0 56 25.070312 56 56v144h-112v-144c0-30.929688 25.070312-56 56-56zm0 0" fill="#ffd782"/><path d="m200 272h208v112h-208zm0 0" fill="#aabece"/><path d="m218.339844 378.347656 47.996094-47.996094 11.316406 11.3125-48 48zm0 0" fill="#cfdfe8"/><path d="m274.335938 378.34375 48-48 11.3125 11.316406-47.996094 47.996094zm0 0" fill="#cfdfe8"/><path d="m330.34375 378.34375 47.996094-47.996094 11.316406 11.3125-48 48zm0 0" fill="#cfdfe8"/><path d="m88 296c13.253906 0 24 10.746094 24 24v16h-48v-16c0-13.253906 10.746094-24 24-24zm0 0" fill="#7fcac9"/><path d="m56 360h16v16h-16zm0 0" fill="#8b3123"/><path d="m48 232h-48l16-80h48zm0 0" fill="#dd3e46"/><path d="m96 232h-48l16-80h48zm0 0" fill="#f98c96"/><path d="m144 232h-48l16-80h48zm0 0" fill="#dd3e46"/><path d="m200 232h-56l16-80h48zm0 0" fill="#f98c96"/><path d="m264 232h-64l8-80h48zm0 0" fill="#dd3e46"/><path d="m320 232h-56l-8-80h48zm0 0" fill="#f98c96"/><path d="m368 232h-48l-16-80h48zm0 0" fill="#dd3e46"/><path d="m416 232h-48l-16-80h48zm0 0" fill="#f98c96"/><path d="m464 232h-48l-16-80h48zm0 0" fill="#dd3e46"/><path d="m288 32h112v88h-112zm0 0" fill="#8b3123"/><path d="m272 0h144v32h-144zm0 0" fill="#d3843d"/><path d="m288 56h40v16h-40zm0 0" fill="#d3843d"/><path d="m344 80h32v16h-32zm0 0" fill="#d3843d"/><g fill="#ffd782"><path d="m56 112h16v16h-16zm0 0"/><path d="m104 104h16v16h-16zm0 0"/><path d="m152 112h16v16h-16zm0 0"/><path d="m200 104h16v16h-16zm0 0"/><path d="m248 112h16v16h-16zm0 0"/></g><path d="m0 432h32v32h-32zm0 0" fill="#d3843d"/><path d="m144 432h320v32h-320zm0 0" fill="#d3843d"/><path d="m200 272h208v32h-208zm0 0" fill="#55b56a"/><path d="m56 424h64v16h-64zm0 0" fill="#8b3123"/><path d="m56 392h64v16h-64zm0 0" fill="#8b3123"/><path d="m184 384h240v48h-240zm0 0" fill="#55b56a"/><path d="m208 408h16v24h-16zm0 0" fill="#7fcac9"/><path d="m248 384h16v24h-16zm0 0" fill="#7fcac9"/><path d="m288 408h16v24h-16zm0 0" fill="#7fcac9"/><path d="m336 384h16v24h-16zm0 0" fill="#7fcac9"/><path d="m376 408h16v24h-16zm0 0" fill="#7fcac9"/></svg>