<?xml version="1.0"?>
<svg xmlns="http://www.w3.org/2000/svg" viewBox="0 0 64 64" width="512" height="512"><g id="Egg-kitchen-omelet-food-2" data-name="Egg-kitchen-omelet-food"><path d="M52.13,49.34C56.4,50.04,59,50.98,59,52c0,1.05-2.72,2-7.16,2.71a2.184,2.184,0,0,1,.16.79c0,1.93-2.69,3.5-6,3.5a7.236,7.236,0,0,1-5.38-1.95C39.41,58.75,35.35,60,30.5,60,24.7,60,20,58.21,20,56a1.523,1.523,0,0,1,.06-.42c-.38-.03-.78-.05-1.15-.08C18.43,56.92,15.97,58,13,58c-3.31,0-6-1.34-6-3a1.9,1.9,0,0,1,.59-1.29C5.93,53.19,5,52.61,5,52c0-1.8,8-3.32,19.01-3.82C24.16,50.86,40,50.76,40,48a3.266,3.266,0,0,0-.08-.7A21.154,21.154,0,0,1,43.5,47C47.33,47,50.63,47.96,52.13,49.34Z" style="fill:#e6e7e8"/><path d="M28.17,9.64l-4.49.9,1.41,8.48-7.78-.71v4.25l-4.24-1.42,2.83,7.07-7.59.51C3.88,22.48,1.2,11.8,6,7,10.92,2.08,22.01,5.02,28.17,9.64Z" style="fill:#ffdaaa"/><path d="M57,8a14,14,0,0,1,0,19.8,17.462,17.462,0,0,1-2.32,1.93l-.51-7.59L47.1,24.97l1.41-4.24H44.27l.71-7.78-8.49,1.41L35.6,9.87A16.642,16.642,0,0,1,37.2,8,14,14,0,0,1,57,8Z" style="fill:#ffdaaa"/><path d="M24,48c0-2.76,3.58-5,8-5,4.04,0,7.38,1.87,7.92,4.3A3.266,3.266,0,0,1,40,48c0,2.76-3.58,5-8,5-4.32,0-7.84-2.14-7.99-4.82A1.087,1.087,0,0,1,24,48Z" style="fill:#ffda44"/><path d="M52.571,48.4C50.753,46.914,47.322,46,43.5,46a22.4,22.4,0,0,0-2.9.2C39.486,43.744,36.1,42,32,42c-4.65,0-8.364,2.24-8.92,5.224C14.169,47.672,4,48.871,4,52c0,1.082.982,1.767,2.118,2.244A2.512,2.512,0,0,0,6,55c0,2.28,3.01,4,7,4,2.677,0,4.992-.808,6.167-2.063C20.154,59.608,25.355,61,30.5,61c4.46,0,8.26-.979,10.162-2.556A9.088,9.088,0,0,0,46,60c3.91,0,6.978-1.962,7-4.472,6.142-1.093,7-2.391,7-3.528C60,50.838,59.109,49.5,52.571,48.4ZM32,44c3.794,0,7,1.832,7,4s-3.206,4-7,4-7-1.832-7-4S28.206,44,32,44Zm19.682,9.723a1,1,0,0,0-.775,1.347A1.172,1.172,0,0,1,51,55.5c0,1.18-2.139,2.5-5,2.5a6.307,6.307,0,0,1-4.618-1.6,1.059,1.059,0,0,0-.8-.35,1,1,0,0,0-.771.419C38.933,57.7,35.375,59,30.5,59c-5.8,0-9.5-1.777-9.5-3a.524.524,0,0,1,.021-.145,1,1,0,0,0-.882-1.272L18.99,54.5a1.006,1.006,0,0,0-1.027.677C17.667,56.055,15.685,57,13,57c-3.052,0-5-1.185-5-2a.994.994,0,0,1,.315-.6,1,1,0,0,0-.426-1.642,6.3,6.3,0,0,1-1.757-.766c1.02-.768,5.981-2.2,17.048-2.765C24.006,51.982,27.585,54,32,54c4.96,0,8.855-2.548,8.987-5.829A20.352,20.352,0,0,1,43.5,48c3.935,0,6.83,1.042,7.953,2.076a1,1,0,0,0,.515.251C56.047,51,57.424,51.7,57.855,52,57.416,52.312,55.987,53.034,51.682,53.723Z" style="fill:#231f20"/><path d="M8.308,29.719c.022,0,.044,0,.066,0l7.592-.506a1,1,0,0,0,.862-1.369L14.8,22.772l2.2.733a1,1,0,0,0,1.316-.949V19.409L25,20.017a1.02,1.02,0,0,0,.824-.316,1,1,0,0,0,.253-.845l-1.255-7.53,3.542-.708a1,1,0,0,0,.4-1.781C22.69,4.282,10.832.753,5.293,6.293-.1,11.682,3.107,23.116,7.492,29.3A1,1,0,0,0,8.308,29.719ZM6.707,7.707a9.07,9.07,0,0,1,6.586-2.266A25.84,25.84,0,0,1,25.6,9.13l-2.123.425a1,1,0,0,0-.79,1.145l1.2,7.208L17.4,17.317a1.014,1.014,0,0,0-.765.258,1,1,0,0,0-.326.738v2.856l-2.925-.976a1,1,0,0,0-1.245,1.321l2.317,5.793-5.652.377C4.543,21.348,2.643,11.772,6.707,7.707Z" style="fill:#231f20"/><path d="M36.658,15.35l7.208-1.2-.59,6.489a1,1,0,0,0,1,1.09h2.855l-.975,2.926a1,1,0,0,0,1.32,1.245l5.794-2.317L53.68,29.8a1,1,0,0,0,1.576.75,19.025,19.025,0,0,0,2.451-2.044A15,15,0,1,0,36.494,7.293a18.367,18.367,0,0,0-1.7,1.98,1,1,0,0,0-.181.8l.9,4.491A1,1,0,0,0,36.658,15.35Zm1.25-6.643A13,13,0,1,1,56.293,27.092c-.231.231-.48.462-.743.691l-.38-5.707a1,1,0,0,0-1-.934,1.011,1.011,0,0,0-.371.071l-5.07,2.029.732-2.2a1,1,0,0,0-.948-1.316H45.367l.609-6.688a1,1,0,0,0-1.161-1.077l-7.53,1.255-.62-3.1A15.73,15.73,0,0,1,37.908,8.707Z" style="fill:#231f20"/><rect x="38" y="24" width="2" height="8" style="fill:#231f20"/><rect x="38" y="18" width="2" height="3" style="fill:#231f20"/><rect x="45" y="31" width="2" height="6" style="fill:#231f20"/><rect x="45" y="27" width="2" height="2" style="fill:#231f20"/><rect x="23" y="29" width="2" height="8" style="fill:#231f20"/><rect x="23" y="24" width="2" height="2" style="fill:#231f20"/><rect x="13" y="35" width="2" height="5" style="fill:#231f20"/><rect x="13" y="31" width="2" height="2" style="fill:#231f20"/><path d="M32,47V45c-4.64,0-5,2.3-5,3h2C29,47.515,30.052,47,32,47Z" style="fill:#231f20"/><rect x="44" y="51" width="2" height="2" style="fill:#231f20"/></g></svg>
