<svg height="503pt" viewBox="0 0 503 503.36578" width="503pt" xmlns="http://www.w3.org/2000/svg"><path d="m34.824219 477.289062c-4.261719-1.679687-8.386719-3.679687-12.34375-5.988281-6.015625-3.195312-12.886719-6.929687-17.464844-9.226562-1.472656-.738281-2.710937-1.875-3.570313-3.285157-.859374-1.402343-1.296874-3.023437-1.261718-4.671874.457031-21.996094 4.578125-43.761719 12.199218-64.402344 7.597657-19.542969 16.726563-38.457032 27.300782-56.5625v-.085938l13.191406-25.734375 13.191406-25.730469c12.554688-18.414062 27.300782-35.234374 43.910156-50.09375 15.976563-14.300781 33.8125-26.378906 53.019532-35.90625 14.625-7.273437 30.035156-12.835937 45.929687-16.585937 16.128907-3.785156 32.660157-5.617187 49.230469-5.445313l.757812.039063.757813.035156 14.664063 1.300781 14.664062 1.304688c20.960938 3.367188 41.292969 9.886719 60.304688 19.339844 19.285156 9.609375 37.183593 21.785156 53.203124 36.199218l25.039063 32.800782 25.035156 32.804687v.085938c15.15625 22.875 27.703125 47.375 37.402344 73.042969 9.171875 25.917968 13.726563 53.242187 13.449219 80.730468 0 1.09375.019531 3.742188.035156 6.960938.019531 3.222656.039062 7.019531.042969 10.40625 0 2.300781-.914063 4.507812-2.542969 6.132812-1.625 1.628906-3.835938 2.539063-6.136719 2.535156zm0 0" fill="#f29c1f"/><path d="m63.113281 349.113281-24.570312-24.46875-24.574219-24.472656c-2.398438-2.390625-3.1875-5.957031-2.023438-9.136719 1.164063-3.179687 4.074219-5.390625 7.449219-5.664062l23.335938-1.886719 23.335937-1.882813 27.335938-2.171874 27.332031-2.167969.046875-.042969.042969-.042969 7.546875-.523437 219.554687-20.21875c6.464844-2.949219 14.96875-6.789063 24.429688-11.054688 9.457031-4.261718 19.871093-8.949218 30.152343-13.589844 8.710938-3.933593 17.332032-7.8125 25.203126-11.347656 7.867187-3.539062 14.988281-6.730468 20.683593-9.285156 2.84375-1.269531 6.144531-.917969 8.652344.921875 2.511719 1.839844 3.839844 4.882813 3.484375 7.972656l-3.972656 35.675781-3.976563 35.679688v.085938l-2.996093 27.207031-2.992188 27.203125v.089844l-191.738281 1.558593zm0 0" fill="#24ae5f"/><path d="m251.773438 251.660156 4.644531-8.71875 4.640625-8.722656v-.085938l.78125-1.476562 4.679687-8.480469 4.675781-8.476562c4.1875-7.589844 13.332032-10.925781 21.421876-7.820313l13.640624 5.242188 13.636719 5.242187c6.867188 2.636719 11.324219 9.316407 11.125 16.667969l-.570312 21.332031-.574219 21.332031-39.050781-13.015624zm0 0" fill="#4c8056"/><path d="m128.3125 275.796875c-.792969-2.914063-1.386719-5.882813-1.777344-8.878906-.398437-3.058594-.59375-6.136719-.59375-9.222657-.023437-25.488281 13.828125-48.972656 36.148438-61.285156.964844-.503906 1.953125-1.007812 2.953125-1.492187.996093-.480469 2.003906-.941407 3.015625-1.355469 4.183594-1.800781 8.542968-3.175781 13.003906-4.097656 19.328125-3.976563 39.4375.527344 55.222656 12.367187 11.699219 8.808594 20.359375 21.042969 24.773438 35.007813l8.070312 23.5-65.085937 17.355468-65.082031 17.355469-5.324219-9.628906zm0 0" fill="#c03a2b"/><path d="m503.433594 0v34.453125l-9.363282 2.285156-9.363281 2.28125c-7.871093 1.921875-15.664062 4.105469-23.386719 6.554688-7.71875 2.449219-15.339843 5.171875-22.863281 8.171875-1.082031.433594-2.164062.871094-3.238281 1.3125-1.078125.441406-2.144531.890625-3.203125 1.347656-12.671875 5.335938-25.015625 11.414062-36.96875 18.203125-11.980469 6.804687-23.542969 14.316406-34.625 22.496094-.261719.21875-.5.414062-.738281.597656-.238282.183594-.476563.359375-.738282.53125l-19.414062 14.507813c-3.6875 2.757812-8.320312 3.9375-12.875 3.277343-4.558594-.660156-8.667969-3.105469-11.421875-6.792969l-15.5625-20.847656-15.566406-20.847656c-5.730469-7.679688-4.15625-18.550781 3.519531-24.285156l9.710938-7.261719 9.714843-7.261719c.21875-.171875.457031-.347656.695313-.519531.238281-.171875.476562-.347656.695312-.519531v-.085938c5.640625-4.253906 11.148438-8.679687 16.519532-13.277344 5.375-4.601562 10.597656-9.375 15.675781-14.320312zm0 0" fill="#ff5364"/><path d="m252.503906 152.476562c.046875 3.648438.605469 7.269532 1.660156 10.757813 1.085938 3.566406 2.738282 6.9375 4.890626 9.984375 1.179687 1.699219 2.546874 3.253906 4.078124 4.640625 4.40625 4.074219 10.644532 5.496094 16.378907 3.734375 3.703125-1.019531 7.066406-3.011719 9.738281-5.769531 3.734375-4.144531 5.890625-9.46875 6.09375-15.042969.3125-5.585938-.304688-11.1875-1.820312-16.574219-.957032-3.507812-2.15625-6.945312-3.589844-10.285156-1.410156-3.351563-3-6.628906-4.640625-9.867187-1.1875-2.652344-2.660157-5.164063-4.394531-7.496094-1.75-2.347656-4.503907-3.734375-7.429688-3.746094-5.117188.628906-9.554688 3.835938-11.753906 8.496094-2.613282 4.4375-4.730469 9.144531-6.320313 14.042968-.964843 2.765626-1.703125 5.605469-2.207031 8.492188-.496094 2.847656-.726562 5.742188-.683594 8.632812zm0 0" fill="#e64c3c"/><path d="m468.839844 488.390625c-39.585938 10.066406-125.179688 15.023437-211.246094 14.976563-86.066406-.050782-172.605469-5.101563-214.074219-15.042969-1.695312-.402344-3.234375-1.289063-4.433593-2.550781-1.195313-1.257813-1.976563-2.851563-2.230469-4.570313-.683594-4.65625-1.195313-9.355469-1.53125-14.101563-.332031-4.746093-.5-9.535156-.5-14.371093.203125-56.269531 23.664062-109.949219 64.824219-148.320313 88.230468-81.902344 224.695312-81.902344 312.925781 0 41.160156 38.371094 64.625 92.050782 64.828125 148.320313 0 4.859375-.171875 9.671875-.507813 14.4375-.335937 4.765625-.851562 9.488281-1.542969 14.167969-.253906 1.6875-1.011718 3.253906-2.179687 4.5-1.167969 1.25-2.671875 2.136718-4.332031 2.554687zm0 0" fill="#f0c419"/><g fill="#f29c1f"><path d="m347.773438 312.40625c0 4.140625-2.925782 7.703125-6.984376 8.511719-4.0625.808593-8.125-1.363281-9.710937-5.191407-1.585937-3.824218-.246094-8.234374 3.195313-10.535156 3.441406-2.300781 8.03125-1.847656 10.957031 1.078125 1.632812 1.625 2.546875 3.835938 2.542969 6.136719zm0 0"/><path d="m365.128906 399.1875c0 4.140625-2.925781 7.703125-6.984375 8.511719-4.0625.804687-8.125-1.367188-9.710937-5.191407-1.585938-3.824218-.246094-8.238281 3.195312-10.535156 3.445313-2.300781 8.03125-1.851562 10.957032 1.078125 1.632812 1.625 2.546874 3.832031 2.542968 6.136719zm0 0"/><path d="m295.164062 373.152344c0 8.28125-5.851562 15.40625-13.96875 17.023437-8.121093 1.613281-16.253906-2.730469-19.421874-10.382812-3.167969-7.648438-.492188-16.472657 6.390624-21.070313 6.886719-4.601562 16.0625-3.699218 21.914063 2.15625 3.261719 3.253906 5.089844 7.667969 5.085937 12.273438zm0 0"/><path d="m208.382812 321.085938c0 4.140624-2.921874 7.703124-6.984374 8.511718-4.058594.804688-8.125-1.367187-9.710938-5.191406-1.582031-3.824219-.246094-8.238281 3.195312-10.535156 3.445313-2.300782 8.03125-1.851563 10.957032 1.078125 1.632812 1.625 2.546875 3.832031 2.542968 6.136719zm0 0"/><path d="m112.925781 477.289062c0 8.277344-5.847656 15.40625-13.96875 17.023438-8.121093 1.613281-16.253906-2.730469-19.421875-10.382812-3.167968-7.648438-.492187-16.472657 6.390625-21.070313 6.886719-4.601563 16.0625-3.699219 21.917969 2.15625 3.257812 3.25 5.089844 7.667969 5.082031 12.273437zm0 0"/><path d="m407.976562 451.253906c0 4.140625-2.925781 7.703125-6.984374 8.511719-4.0625.808594-8.125-1.367187-9.710938-5.191406s-.246094-8.234375 3.195312-10.535157c3.441407-2.300781 8.03125-1.847656 10.957032 1.078126 1.632812 1.625 2.546875 3.835937 2.542968 6.136718zm0 0"/><path d="m260.453125 459.933594c0 4.136718-2.925781 7.703125-6.988281 8.511718-4.058594.804688-8.125-1.367187-9.707032-5.191406-1.585937-3.824218-.25-8.238281 3.195313-10.535156 3.441406-2.300781 8.027344-1.851562 10.957031 1.078125 1.628906 1.625 2.542969 3.832031 2.542969 6.136719zm0 0"/><path d="m173.671875 416.542969c0 4.140625-2.925781 7.703125-6.984375 8.511719-4.0625.808593-8.125-1.367188-9.710938-5.191407-1.585937-3.824219-.246093-8.234375 3.195313-10.535156s8.03125-1.847656 10.957031 1.078125c1.632813 1.625 2.546875 3.835938 2.542969 6.136719zm0 0"/><path d="m121.605469 355.796875c0 4.140625-2.925781 7.703125-6.988281 8.511719-4.058594.808594-8.125-1.367188-9.707032-5.191406-1.585937-3.824219-.246094-8.234376 3.195313-10.535157 3.441406-2.300781 8.027343-1.847656 10.957031 1.078125 1.628906 1.625 2.542969 3.835938 2.542969 6.136719zm0 0"/></g><path d="m441.820312 52.414062-1.691406.652344-1.691406.648438c-1.085938.4375-2.171875.871094-3.242188 1.3125-1.074218.445312-2.140624.902344-3.179687 1.378906l-23.585937-9.734375-23.585938-9.738281c-5.902344-2.4375-9.988281-7.917969-10.640625-14.273438l-1.164063-11.328125-1.164062-11.332031h58.144531l5.898438 26.207031zm0 0" fill="#802f34"/><path d="m360.421875 97.105469c-.261719.21875-.5.414062-.738281.597656-.238282.183594-.476563.359375-.738282.53125l-19.4375 14.492187c-7.675781 5.722657-18.53125 4.171876-24.296874-3.472656l-15.535157-20.867187-15.535156-20.871094c-5.71875-7.675781-4.167969-18.53125 3.472656-24.300781l19.4375-14.492188c.21875-.171875.457031-.347656.695313-.519531.238281-.171875.476562-.347656.695312-.519531l25.988282 34.710937zm0 0" fill="#802f34"/></svg>