<svg height="512pt" viewBox="0 -80 512.3332 512" width="512pt" xmlns="http://www.w3.org/2000/svg"><path d="m452.019531 255.207031-26.558593 96.960938h-338.5625l-26.558594-96.960938zm0 0" fill="#aa854b"/><path d="m452.019531 255.207031-17.761719 64.800781c-14.078124-.800781-27.679687-4.320312-40.160156-10.5625-14.078125 7.042969-29.917968 10.722657-45.917968 10.722657s-31.839844-3.679688-45.921876-10.722657c-14.238281 7.042969-30.078124 10.722657-46.078124 10.722657s-31.839844-3.679688-46.082032-10.722657c-14.078125 7.042969-29.917968 10.722657-45.917968 10.722657s-31.839844-3.679688-45.921876-10.722657c-12.480468 6.242188-26.078124 9.761719-40.160156 10.5625l-17.757812-64.800781zm0 0" fill="#916e40"/><path d="m498.546875 261.125c-32.640625 34.847656-76.625 33.472656-104.367187 10.371094-12.785157 10.636718-29.007813 16.671875-46 16.671875-16.992188 0-33.214844-6.035157-46-16.671875-12.785157 10.636718-29.007813 16.671875-46 16.671875-16.992188 0-33.214844-6.035157-46-16.671875-12.785157 10.636718-29.007813 16.671875-46 16.671875-16.992188 0-33.214844-6.035157-46-16.671875-27.808594 23.152344-71.953126 24.476562-104.609376-10.640625-10.367187-11.152344-14.320312-26.59375-13.457031-41.792969.578125-10.015625-3.933593-5.121094 31.664063-48.625 0-24.527344 7.363281-48.6875 21.890625-68.464844 46.734375-63.644531 121.773437-101.804687 202.511719-101.804687 80.734374 0 155.777343 38.160156 202.511718 101.804687 14.527344 19.777344 21.886719 43.9375 21.886719 68.464844v.015625c35.488281 43.539063 31.105469 38.449219 31.648437 48.578125.832032 15.328125-3.183593 30.894531-13.679687 42.09375zm0 0" fill="#ecce93"/><g fill="#fff"><path d="m144.179688 64.167969h32v32h-32zm0 0"/><path d="m208.179688 32.167969h32v32h-32zm0 0"/><path d="m272.179688 32.167969h32v32h-32zm0 0"/><path d="m336.179688 64.167969h32v32h-32zm0 0"/></g><path d="m440.179688 256.167969c-16.992188 0-33.214844-6.035157-46-16.671875-12.785157 10.636718-29.007813 16.671875-46 16.671875-16.992188 0-33.214844-6.035157-46-16.671875-12.785157 10.636718-29.007813 16.671875-46 16.671875-16.992188 0-33.214844-6.035157-46-16.671875-12.785157 10.636718-29.007813 16.671875-46 16.671875-16.992188 0-33.214844-6.035157-46-16.671875-12.785157 10.636718-29.007813 16.671875-46 16.671875-32.128907 0-59.105469-21.296875-68.335938-50.417969-3.601562 5.359375-3.664062 7.199219-3.664062 10.417969 0 39.695312 32.304687 72 72 72 16.992187 0 33.214843-6.035157 46-16.671875 12.785156 10.636718 29.023437 16.671875 46 16.671875 16.976562 0 33.214843-6.035157 46-16.671875 12.785156 10.636718 29.023437 16.671875 46 16.671875 16.976562 0 33.214843-6.035157 46-16.671875 12.785156 10.636718 29.023437 16.671875 46 16.671875 16.976562 0 33.214843-6.035157 46-16.671875 12.785156 10.636718 29.023437 16.671875 46 16.671875 39.695312 0 72-32.304688 72-72 0-3.265625-.066407-5.058594-3.679688-10.402344-9.234375 29.105469-36.191406 50.402344-68.320312 50.402344zm0 0" fill="#e5bd76"/></svg>