<svg height="512pt" viewBox="0 0 512 512" width="512pt" xmlns="http://www.w3.org/2000/svg"><path d="m504.5 256c0 137.242188-111.257812 248.5-248.5 248.5s-248.5-111.257812-248.5-248.5 111.257812-248.5 248.5-248.5 248.5 111.257812 248.5 248.5zm0 0" fill="#fff9eb"/><path d="m431.714844 80.285156-.28125.28125c-11.320313 11.320313-12.261719 29.234375-2.453125 41.886719 29.171875 37.625 45.136719 83.480469 45.511719 131.804687.449218 57.699219-22.054688 113.507813-62.460938 154.699219-41.4375 42.246094-96.941406 65.542969-156.03125 65.542969-49.019531 0-95.574219-16.03125-133.675781-45.617188-12.59375-9.78125-30.476563-8.730468-41.753907 2.546876l-.285156.285156c44.96875 44.972656 107.09375 72.785156 175.714844 72.785156 137.648438 0 248.5-110.851562 248.5-248.5 0-68.621094-27.8125-130.746094-72.785156-175.714844zm0 0" fill="#d3cdbf"/><path d="m452 256c0 108.246094-87.753906 196-196 196s-196-87.753906-196-196 87.753906-196 196-196 196 87.753906 196 196zm0 0" fill="#00bd4f"/><path d="m256 60c-10.371094 0-20.554688.816406-30.492188 2.375.261719 13.21875-3.410156 25.757812-13.628906 34.753906-29.046875 26.234375-23.386718 79.050782 11.496094 98.519532 15.859375 8.945312 22.714844 27.339843 17.925781 43.796874-11.007812 37.167969 19.25 78.824219 58.453125 79.238282 18.921875.433594 33.113282 14.335937 36.046875 30.3125 5.179688 26.300781 28.292969 46.1875 54.417969 49.699218 38.007812-35.773437 61.78125-86.507812 61.78125-142.695312 0-108.074219-87.925781-196-196-196zm0 0" fill="#4fe267"/><path d="m170.996094 193.375c0 16.566406-13.429688 30-30 30-16.566406 0-30-13.433594-30-30 0-16.570312 13.433594-30 30-30 16.570312 0 30 13.429688 30 30zm0 0" fill="#ff5368"/><path d="m148.773438 164.398438c.664062 2.480468 1.023437 5.082031 1.023437 7.773437 0 16.566406-13.433594 30-30 30-2.691406 0-5.296875-.359375-7.777344-1.023437 3.425781 12.796874 15.097657 22.226562 28.976563 22.226562 16.570312 0 30-13.433594 30-30 0-13.878906-9.425782-25.554688-22.222656-28.976562zm0 0" fill="#d9435b"/><path d="m149.046875 362.953125c27.335937 27.339844 71.65625 27.339844 98.992187 0l-98.992187-98.992187c-27.339844 27.335937-27.339844 71.65625 0 98.992187zm0 0" fill="#ff5368"/><path d="m193.238281 308.152344-28.285156 28.285156c-2.925781 2.929688-2.925781 7.679688 0 10.609375 2.929687 2.925781 7.679687 2.925781 10.609375 0l28.285156-28.285156zm0 0" fill="#ff7c8b"/><path d="m143.742188 368.257812c30.214843 30.21875 79.382812 30.21875 109.601562 0l-10.609375-10.605468c-24.367187 24.367187-64.019531 24.367187-88.386719 0-24.367187-24.371094-24.367187-64.019532 0-88.386719l-10.605468-10.609375c-30.21875 30.21875-30.21875 79.382812 0 109.601562zm0 0" fill="#c5324f"/><path d="m312.5 385.921875h-30c-8.25 0-15 6.75-15 15s6.75 15 15 15h30c8.25 0 15-6.75 15-15s-6.75-15-15-15zm0 0" fill="#ff983b"/><path d="m199.492188 219.699219-21.210938 21.210937c-5.832031 5.835938-5.832031 15.378906 0 21.214844 5.832031 5.832031 15.378906 5.832031 21.210938 0l21.214843-21.214844c5.832031-5.832031 5.832031-15.378906 0-21.210937-5.835937-5.835938-15.378906-5.835938-21.214843 0zm0 0" fill="#ff983b"/><path d="m385.617188 163.507812 111.195312-111.195312c10.25-10.25 10.25-26.871094 0-37.125-10.25-10.25-26.871094-10.25-37.125 0l-111.21875 111.222656c-27.417969-12.398437-60.933594-7.507812-83.515625 14.578125-10.714844 10.476563-17.613281 23.355469-20.695313 36.925781-2.238281 9.832032 9.671876 16.519532 16.800782 9.390626l20.667968-20.667969c5.710938-5.710938 15.011719-6.234375 20.988282-.800781 6.375 5.804687 6.550781 15.6875.523437 21.714843l-24.738281 24.734375c-5.835938 5.835938-5.839844 15.386719-.011719 21.226563l.109375.109375c5.78125 5.765625 15.230469 5.761718 21.007813-.011719l24.546875-24.546875c5.710937-5.710938 15.011718-6.238281 20.988281-.800781 6.375 5.804687 6.550781 15.683593.523437 21.714843l-20.964843 20.964844c-7.050781 7.050782-.546875 19.035156 9.183593 16.847656 13.386719-3.003906 26.109376-9.714843 36.527344-20.132812 22.757813-22.757812 27.8125-56.492188 15.207032-84.148438zm0 0" fill="#fff9eb"/><path d="m475.597656 31.097656-111.195312 111.195313c-8.847656 8.851562-11.273438 22.265625-6.085938 33.65625 7.75 17 4.085938 37.289062-9.117187 50.492187-.761719.761719-1.546875 1.492188-2.355469 2.191406-.363281.464844-.753906.914063-1.179688 1.34375l-20.964843 20.960938c-7.050781 7.054688-.546875 19.035156 9.183593 16.851562 13.386719-3.003906 26.109376-9.714843 36.527344-20.136718 22.757813-22.753906 27.8125-56.488282 15.207032-84.144532l111.195312-111.195312c7.984375-7.984375 9.746094-19.832031 5.292969-29.523438-9.332031-1.667968-19.296875 1.097657-26.507813 8.308594zm0 0" fill="#d3cdbf"/><path d="m414.011719 310.382812c0 16.566407-13.429688 30-30 30-16.566407 0-30-13.433593-30-30 0-16.570312 13.433593-30 30-30 16.570312 0 30 13.429688 30 30zm0 0" fill="#ff5368"/><path d="m391.785156 281.402344c.664063 2.480468 1.023438 5.085937 1.023438 7.777344 0 16.566406-13.429688 30-30 30-2.6875 0-5.292969-.359376-7.773438-1.023438 3.425782 12.796875 15.097656 22.226562 28.976563 22.226562 16.570312 0 30-13.433593 30-30 0-13.878906-9.425781-25.554687-22.226563-28.980468zm0 0" fill="#d9435b"/><path d="m459.292969 100.4375c16.09375-16.09375 30.6875-30.6875 38.011719-38.011719l4.8125-4.8125c13.15625-13.15625 13.15625-34.566406 0-47.726562-6.378907-6.375-14.851563-9.886719-23.867188-9.886719s-17.488281 3.511719-23.863281 9.886719l-42.824219 42.820312c-44.449219-34.03125-99.417969-52.707031-155.5625-52.707031-68.378906 0-132.667969 26.628906-181.019531 74.980469-48.351563 48.351562-74.980469 112.640625-74.980469 181.019531s26.628906 132.667969 74.980469 181.019531c48.351562 48.351563 112.640625 74.980469 181.019531 74.980469s132.667969-26.628906 181.019531-74.980469c48.351563-48.351562 74.980469-112.640625 74.980469-181.019531 0-56.144531-18.675781-111.109375-52.707031-155.5625zm5.699219-79.945312c3.539062-3.542969 8.25-5.492188 13.257812-5.492188s9.71875 1.949219 13.257812 5.492188c7.3125 7.3125 7.3125 19.207031 0 26.515624l-4.8125 4.8125c-8.027343 8.027344-24.789062 24.789063-42.691406 42.691407-.003906.003906-.007812.007812-.011718.011719-29.132813 29.132812-61.273438 61.273437-63.679688 63.679687-2.210938 2.214844-2.816406 5.566406-1.519531 8.414063 11.617187 25.496093 6.117187 55.929687-13.683594 75.734374-9.066406 9.0625-20.429687 15.328126-32.871094 18.121094-1.457031.328125-2.242187-.480468-2.644531-1.214844-.421875-.765624-.695312-1.910156.410156-3.015624l20.960938-20.960938c4.328125-4.328125 6.730468-10.320312 6.585937-16.441406-.148437-6.207032-2.761719-11.933594-7.363281-16.125-4.25-3.863282-9.609375-5.78125-14.996094-5.78125-5.886718 0-11.8125 2.292968-16.34375 6.828125l-24.546875 24.542969c-2.867187 2.867187-7.535156 2.871093-10.386719.023437l-.117187-.117187c-2.925781-2.929688-2.921875-7.695313.007813-10.621094l24.734374-24.738282c4.328126-4.328124 6.730469-10.320312 6.585938-16.441406-.148438-6.207031-2.761719-11.933594-7.363281-16.121094-8.894531-8.09375-22.660157-7.636718-31.339844 1.042969l-20.667969 20.664063c-.875.878906-1.863281 1.027344-2.929687.4375-.773438-.425782-1.617188-1.269532-1.253907-2.855469 2.871094-12.628906 9.3125-24.117187 18.625-33.226563 19.699219-19.265624 49.914063-24.535156 75.183594-13.109374 2.847656 1.285156 6.1875.675781 8.394532-1.53125l63.707031-63.707032s.003906-.003906.007812-.007812zm-208.992188 476.507812c-132.886719 0-241-108.113281-241-241s108.113281-241 241-241c52.1875 0 103.296875 17.144531 144.855469 48.414062l-26.882813 26.882813c-15.9375-11.382813-33.328125-20.378906-51.800781-26.746094-21.261719-7.332031-43.511719-11.050781-66.152344-11.050781h-.019531c-7.390625 0-14.828125.398438-22.121094 1.199219-49.519531 5.378906-95.289062 28.832031-128.890625 66.019531-16.539062 18.3125-29.488281 39.191406-38.46875 62.03125-9.300781 23.660156-14.019531 48.640625-14.019531 74.25 0 13.789062 1.398438 27.570312 4.148438 40.96875 2.671874 13.050781 6.671874 25.890625 11.871093 38.171875 5.109375 12.058594 11.429688 23.679687 18.78125 34.570313 7.289063 10.769531 15.660157 20.910156 24.871094 30.117187 9.207031 9.222656 19.347656 17.582031 30.128906 24.871094 10.878907 7.351562 22.5 13.671875 34.558594 18.78125 12.28125 5.199219 25.121094 9.199219 38.171875 11.878906 13.398438 2.742187 27.179688 4.140625 40.96875 4.140625s27.570312-1.398438 40.96875-4.140625c13.050781-2.679687 25.890625-6.679687 38.171875-11.878906 12.058594-5.109375 23.679687-11.429688 34.570313-18.78125 10.769531-7.289063 20.910156-15.648438 30.117187-24.871094 9.210937-9.207031 17.582031-19.347656 24.871094-30.117187 7.351562-10.890626 13.671875-22.511719 18.78125-34.570313 5.199219-12.28125 9.199219-25.121094 11.867187-38.171875 2.75-13.398438 4.152344-27.179688 4.152344-40.96875 0-17.238281-2.171875-34.371094-6.460938-50.941406-4.160156-16.070313-10.3125-31.628906-18.289062-46.238282-1.320312-2.410156-3.839844-3.910156-6.589844-3.910156-1.25 0-2.492187.320313-3.59375.917969-3.628906 1.980469-4.96875 6.550781-2.988281 10.183594 14.988281 27.457031 22.921875 58.578125 22.921875 89.988281 0 50.25-19.632812 97.570312-55.273438 133.230469-.488281.488281-.988281.960937-1.480468 1.445312-22.066406-4.363281-40.527344-22.003906-44.585938-43.125-1.792968-9.609375-6.921875-18.550781-14.433594-25.171875-7.917968-6.980468-18.148437-10.957031-28.808593-11.1875h-.089844c-13.921875-.152344-27.269531-6.3125-37.589844-17.351562-10.019531-10.71875-15.75-24.761719-15.730469-38.519532 0-4.691406.671876-9.308593 1.980469-13.75l.007813-.03125c1.191406-4.109374 1.800781-8.359374 1.800781-12.648437.011719-7.921875-2.070313-15.75-6.007813-22.660156-4.070312-7.128907-10.03125-13.050781-17.230468-17.109375l-.03125-.019532c-8.148438-4.550781-14.898438-11.542968-19.53125-20.203124-4.4375-8.320313-6.777344-17.859376-6.777344-27.570313.007812-15.25 5.878906-29.308594 16.121094-38.566406 2.589844-2.292969 4.90625-4.839844 6.886718-7.589844 2.421876-3.363281 1.660157-8.0625-1.699218-10.480469-1.289063-.921875-2.800782-1.410156-4.378906-1.410156-2.410157 0-4.679688 1.167969-6.089844 3.117188-1.351563 1.871093-2.871094 3.542968-4.640625 5.101562l-.070313.058594c-6.949218 6.28125-12.320312 13.992187-15.960937 22.910156-3.378907 8.28125-5.167969 17.570312-5.167969 26.859375.007812 12.160156 2.960938 24.140625 8.550781 34.632813 5.949219 11.1875 14.738281 20.25 25.410157 26.21875h.007812c9.609375 5.421874 15.589844 15.648437 15.609375 26.710937 0 2.859375-.398437 5.699219-1.199219 8.4375-1.71875 5.800781-2.589844 11.863281-2.589844 17.992187.011719 8.929688 1.800782 17.78125 5.320313 26.308594 3.410156 8.269532 8.269531 15.820313 14.441406 22.441406 6.269531 6.730469 13.527344 12.070313 21.578125 15.871094 8.53125 4.039063 17.550782 6.136719 26.800782 6.238282 7.191406.191406 13.820312 2.769531 19.167968 7.460937 4.960938 4.359375 8.460938 10.460937 9.613282 16.710937l.007812.097657c1.460938 7.28125 4.121094 14.25 7.921875 20.710937 3.648437 6.230469 8.277344 11.890625 13.769531 16.808594 5.410156 4.859375 11.5 8.882812 18.121094 11.972656 2.046875.953125 4.136719 1.800782 6.25 2.558594-33.492188 27.207031-74.890625 42-118.5 42-50.25 0-97.570312-19.628906-133.230469-55.269531-35.640625-35.660157-55.269531-82.96875-55.269531-133.230469-.019531-93.335938 67.625-171.792969 158.824219-186.167969.183593-.019531.363281-.050781.542969-.085937 2.855468-.441406 5.734374-.820313 8.632812-1.136719 6.769531-.738281 13.660156-1.109375 20.5-1.109375 38.722656 0 75.609375 11.582031 107.214844 33.558594l-16.511719 16.507812c-29.800781-11.226562-64.164063-4.269531-86.992187 18.058594-11.382813 11.132812-19.257813 25.179688-22.769532 40.625-1.757812 7.730469 1.710938 15.492188 8.632813 19.3125 6.867187 3.792969 15.222656 2.605469 20.785156-2.957031l20.667969-20.667969c2.953125-2.957031 7.726562-3.203125 10.636718-.554688 1.539063 1.402344 2.414063 3.3125 2.464844 5.378907.046875 2.074219-.730468 4.019531-2.195312 5.484375l-24.738282 24.734375c-8.769531 8.773437-8.773437 23.046875-.019531 31.820312l.125.125c8.71875 8.703125 22.894531 8.695313 31.605469-.015625l24.546875-24.546875c2.953125-2.957031 7.730469-3.203125 10.640625-.554687 1.539062 1.402344 2.414062 3.3125 2.460938 5.378906.050781 2.074219-.730469 4.019531-2.195313 5.484375l-20.960937 20.960937c-5.5625 5.566407-6.746094 13.945313-2.945313 20.855469 3.136719 5.695313 8.945313 9.050781 15.191406 9.050781 1.28125 0 2.582031-.140624 3.882813-.433593 15.214844-3.414063 29.113281-11.074219 40.191406-22.152344 22.957031-22.957031 30.1875-57.601563 18.753906-87.695313 8.742188-8.742187 31.648438-31.652343 54.113282-54.117187 31.269531 41.566406 48.414062 92.671875 48.414062 144.859375 0 132.886719-108.113281 241-241 241zm0 0"/><path d="m233.546875 138.503906c0 4.140625-3.359375 7.5-7.5 7.5-4.144531 0-7.5-3.359375-7.5-7.5 0-4.144531 3.355469-7.5 7.5-7.5 4.140625 0 7.5 3.355469 7.5 7.5zm0 0"/><path d="m103.535156 248.511719c0 4.140625-3.355468 7.5-7.5 7.5-4.140625 0-7.5-3.359375-7.5-7.5 0-4.144531 3.359375-7.5 7.5-7.5 4.144532 0 7.5 3.355469 7.5 7.5zm0 0"/><path d="m293.546875 275.511719c0 4.140625-3.355469 7.5-7.5 7.5-4.140625 0-7.5-3.359375-7.5-7.5 0-4.144531 3.359375-7.5 7.5-7.5 4.144531 0 7.5 3.355469 7.5 7.5zm0 0"/><path d="m423.558594 205.507812c0 4.140626-3.359375 7.5-7.5 7.5-4.144532 0-7.5-3.359374-7.5-7.5 0-4.144531 3.355468-7.5 7.5-7.5 4.140625 0 7.5 3.355469 7.5 7.5zm0 0"/><path d="m423.558594 255.511719c0 4.140625-3.359375 7.5-7.5 7.5-4.144532 0-7.5-3.359375-7.5-7.5 0-4.144531 3.355468-7.5 7.5-7.5 4.140625 0 7.5 3.355469 7.5 7.5zm0 0"/><path d="m303.550781 355.515625c0 4.140625-3.359375 7.5-7.5 7.5-4.144531 0-7.5-3.359375-7.5-7.5s3.355469-7.5 7.5-7.5c4.140625 0 7.5 3.359375 7.5 7.5zm0 0"/><path d="m237.546875 415.519531c0 4.144531-3.359375 7.5-7.5 7.5-4.144531 0-7.5-3.355469-7.5-7.5 0-4.140625 3.355469-7.5 7.5-7.5 4.140625 0 7.5 3.359375 7.5 7.5zm0 0"/><path d="m283.546875 88.5c0 4.140625-3.355469 7.5-7.5 7.5-4.140625 0-7.5-3.359375-7.5-7.5 0-4.144531 3.359375-7.5 7.5-7.5 4.144531 0 7.5 3.355469 7.5 7.5zm0 0"/><path d="m173.539062 128.503906c0 4.140625-3.355468 7.5-7.5 7.5-4.140624 0-7.5-3.359375-7.5-7.5 0-4.144531 3.359376-7.5 7.5-7.5 4.144532 0 7.5 3.355469 7.5 7.5zm0 0"/><path d="m178.496094 193.375c0-20.679688-16.820313-37.5-37.5-37.5-20.675782 0-37.5 16.820312-37.5 37.5 0 20.675781 16.824218 37.5 37.5 37.5 20.679687 0 37.5-16.824219 37.5-37.5zm-60 0c0-12.40625 10.09375-22.5 22.5-22.5 12.410156 0 22.5 10.09375 22.5 22.5s-10.089844 22.5-22.5 22.5c-12.40625 0-22.5-10.09375-22.5-22.5zm0 0"/><path d="m384.011719 272.882812c-20.675781 0-37.5 16.820313-37.5 37.5 0 20.675782 16.824219 37.5 37.5 37.5 20.679687 0 37.5-16.824218 37.5-37.5 0-20.679687-16.820313-37.5-37.5-37.5zm0 60c-12.40625 0-22.5-10.09375-22.5-22.5 0-12.410156 10.09375-22.5 22.5-22.5s22.5 10.089844 22.5 22.5c0 12.40625-10.09375 22.5-22.5 22.5zm0 0"/><path d="m267.5 408.421875c4.140625 0 7.5-3.363281 7.5-7.5 0-1.980469.789062-3.851563 2.210938-5.292969 1.429687-1.417968 3.308593-2.207031 5.289062-2.207031h30c1.980469 0 3.859375.789063 5.289062 2.207031 1.421876 1.441406 2.210938 3.3125 2.210938 5.292969 0 1.976563-.789062 3.859375-2.210938 5.289063-1.4375 1.429687-3.308593 2.210937-5.289062 2.210937h-23.5625c-2 0-3.878906.777344-5.296875 2.199219-1.421875 1.417968-2.203125 3.300781-2.203125 5.300781 0 4.136719 3.371094 7.5 7.5 7.5h23.5625c6.011719-.011719 11.648438-2.363281 15.898438-6.601563 4.242187-4.242187 6.589843-9.890624 6.601562-15.898437-.011719-6.011719-2.359375-11.652344-6.601562-15.902344-4.25-4.238281-9.890626-6.578125-15.898438-6.597656h-30c-6.011719.019531-11.648438 2.359375-15.898438 6.597656-4.242187 4.25-6.589843 9.890625-6.601562 15.902344 0 4.136719 3.359375 7.5 7.5 7.5zm0 0"/><path d="m172.976562 267.429688c4.386719 4.386718 10.148438 6.578124 15.910157 6.578124s11.523437-2.191406 15.910156-6.578124c.082031-.082032.164063-.167969.242187-.253907l10.210938-11.210937c2.789062-3.0625 2.566406-7.808594-.492188-10.597656-3.0625-2.789063-7.808593-2.566407-10.597656.496093l-10.074218 11.0625c-2.933594 2.820313-7.613282 2.789063-10.5-.101562-2.925782-2.925781-2.925782-7.683594 0-10.605469l21.210937-21.214844c2.929687-2.929687 2.929687-7.679687 0-10.605468-2.929687-2.929688-7.679687-2.929688-10.605469 0l-21.214844 21.210937c-8.773437 8.773437-8.773437 23.046875 0 31.820313zm0 0"/><path d="m149.039062 256.460938c-2 0-3.878906.777343-5.300781 2.199218-7.386719 7.390625-13.117187 16.011719-17.019531 25.640625-3.769531 9.289063-5.679688 19.109375-5.679688 29.160157 0 10.050781 1.910157 19.859374 5.679688 29.160156 3.902344 9.617187 9.632812 18.25 17.019531 25.640625 7.390625 7.386719 16.011719 13.109375 25.632813 17.007812 9.289062 3.78125 19.089844 5.691407 29.140625 5.691407h.066406c10.042969 0 19.851563-1.921876 29.140625-5.691407 9.621094-3.898437 18.242188-9.621093 25.621094-17.007812 2.929687-2.933594 2.929687-7.683594 0-10.613281-1.410156-1.410157-3.300782-2.1875-5.300782-2.1875s-3.890624.777343-5.300781 2.1875c-.027343.03125-.058593.0625-.089843.089843-11.796876 11.742188-27.457032 18.210938-44.109376 18.222657-16.699218-.011719-32.390624-6.511719-44.1875-18.3125-11.800781-11.796876-18.300781-27.5-18.3125-44.1875.011719-13.972657 4.742188-27.671876 13.320313-38.582032l38.578125 38.578125-22.984375 22.980469c-2.925781 2.929688-2.925781 7.679688 0 10.609375 2.929687 2.929687 7.679687 2.929687 10.609375 0l22.980469-22.984375 22.976562 22.976562c1.421875 1.421876 3.300781 2.203126 5.3125 2.203126 2 0 3.878907-.78125 5.300781-2.203126 1.417969-1.40625 2.199219-3.289062 2.199219-5.296874 0-2-.78125-3.890626-2.199219-5.300782l-77.78125-77.78125c-1.421874-1.421875-3.300781-2.199218-5.3125-2.199218zm0 0"/><path d="m203.066406 345.625c-2.777344.386719-5.597656.414062-8.382812.085938-4.113282-.488282-7.84375 2.453124-8.328125 6.566406-.488281 4.113281 2.453125 7.84375 6.566406 8.328125 4.058594.480469 8.167969.441406 12.214844-.125 4.101562-.570313 6.964843-4.359375 6.390625-8.460938-.230469-1.679687-1.003906-3.152343-2.121094-4.265625-1.601562-1.605468-3.917969-2.464844-6.339844-2.128906zm0 0"/><path d="m164.25 302.550781c-1.109375-1.113281-2.578125-1.886719-4.257812-2.121093-4.101563-.574219-7.894532 2.28125-8.46875 6.382812-.566407 4.046875-.613282 8.15625-.136719 12.214844.480469 4.113281 4.207031 7.058594 8.324219 6.574218 4.113281-.480468 7.054687-4.207031 6.574218-8.320312-.328125-2.785156-.296875-5.605469.09375-8.382812.339844-2.425782-.519531-4.742188-2.128906-6.347657zm0 0"/></svg>